<svg width="343" height="48" viewBox="0 0 343 48" fill="none" xmlns="http://www.w3.org/2000/svg">
<path d="M117.605 7.55848C112.746 2.69772 106.26 0 99.385 0C98.0245 0 96.6884 0.121519 95.3765 0.315949C83.4969 2.23595 74.4111 12.5651 74.4111 24.96C74.4111 34.7787 80.3145 43.2851 88.7687 47.0522L89.1088 46.1772L89.1573 46.0314C81.5049 42.483 76.2089 34.7301 76.2089 25.762C76.2089 13.7803 85.9506 4.05873 97.903 4.05873C109.54 4.05873 118.99 13.5129 118.99 25.1544C118.99 30.5985 116.852 35.5565 113.378 39.2263L113.305 41.8268L113.208 45.6668L113.135 48C120.35 43.2365 125.136 35.0461 125.136 25.762C125.16 18.9084 122.488 12.4192 117.605 7.55848Z" fill="white" style="fill:white;fill:white;fill-opacity:1;"/>
<path d="M103.029 22.2622C103.636 21.9706 104.171 21.6303 104.632 21.2172C105.094 20.8283 105.458 20.3908 105.75 19.9291C106.041 19.4673 106.26 18.9812 106.381 18.4708C106.503 18.0091 106.552 17.5716 106.503 17.1584C106.454 16.7453 106.357 16.405 106.163 16.0891C105.968 15.7974 105.701 15.5058 105.361 15.2627C105.021 15.0197 104.584 14.801 104.025 14.6551C103.466 14.485 102.835 14.3635 102.13 14.3149C101.183 14.242 100.089 14.1934 98.8504 14.1934C97.8058 14.1934 96.7126 14.2177 95.5951 14.242C94.4776 14.2663 93.5301 14.2906 92.7527 14.2906C91.9996 14.2906 91.0279 14.2906 89.8375 14.2663C89.5946 15.2141 89.2302 16.4779 88.7686 18.082C88.307 19.686 87.8454 21.1929 87.3596 22.6511C86.898 24.085 86.4607 25.3488 86.072 26.4425C85.6833 27.5361 85.1974 28.7756 84.6387 30.1367C86.0963 30.1123 87.1166 30.1123 87.6754 30.1123C88.1612 30.1123 89.2059 30.1123 90.8092 30.1367C91.4166 27.925 92.0968 25.6891 92.8013 23.4045C93.5058 21.1199 94.1375 19.1756 94.6962 17.5959C95.1821 17.5959 95.6194 17.5716 95.9838 17.5716C96.3482 17.5716 96.7126 17.5473 97.0284 17.5473C98.0245 17.5473 98.7533 17.5959 99.1905 17.7417C99.6278 17.8632 99.9436 18.0577 100.089 18.3007C100.235 18.5437 100.284 18.8354 100.187 19.1756C100.089 19.5645 99.8222 19.9534 99.4335 20.2936C99.0448 20.6582 98.5346 20.9255 97.9273 21.0956C97.2956 21.2658 96.6397 21.363 95.9352 21.363C95.425 21.363 94.9392 21.3144 94.429 21.2415L99.4092 35.7265L100.235 38.1569C102.519 37.5493 104.584 36.3827 106.26 34.8273L100.551 23.1615C101.596 22.8455 102.422 22.5539 103.029 22.2622Z" fill="white" style="fill:white;fill:white;fill-opacity:1;"/>
<path d="M97.6118 7.43701C87.7486 7.43701 79.7803 15.433 79.7803 25.276C79.7803 32.713 84.3232 39.1049 90.8096 41.7783C92.8988 42.6532 95.2067 43.1393 97.6361 43.1393C98.7779 43.1393 99.8711 43.0178 100.964 42.8233L101.304 43.0178L101.523 43.1393L102.981 43.9413L104.535 44.792L105.58 45.3509L106.965 46.1044L109.783 47.6355L109.88 44.5489L109.953 42.1914L110.002 40.6603L110.026 40.0041L110.05 39.0563L110.074 38.0841C113.403 34.8274 115.492 30.3069 115.492 25.276C115.468 15.433 107.475 7.43701 97.6118 7.43701ZM96.5186 39.9798C94.8666 39.9798 93.2875 39.7125 91.7813 39.2507C85.4893 37.2335 80.9221 31.352 80.9221 24.3768C80.9221 15.7489 87.9186 8.77372 96.5186 8.77372C105.143 8.77372 112.115 15.7732 112.115 24.3768C112.115 29.675 109.467 34.3899 105.41 37.2092C104.535 37.8168 103.588 38.3271 102.592 38.7646C102.446 38.8375 102.3 38.8861 102.155 38.959C101.304 39.275 100.43 39.5423 99.531 39.7125C98.5592 39.8826 97.5389 39.9798 96.5186 39.9798Z" fill="white" style="fill:white;fill:white;fill-opacity:1;"/>
<path d="M63.4306 22.9185C63.7707 23.1373 63.9651 23.4046 64.0622 23.7449C64.1351 24.0851 64.1351 24.474 64.0137 24.9114C63.8679 25.4461 63.625 25.9322 63.2849 26.3697C62.9447 26.8314 62.5318 27.1717 62.0216 27.4147C61.5357 27.6578 61.0013 27.755 60.4668 27.755C59.7623 27.755 59.2035 27.5605 58.8391 27.1474C58.4747 26.7342 58.4018 26.1509 58.5962 25.3975C58.7419 24.8871 58.9849 24.4011 59.325 23.9636C59.6651 23.5261 60.0781 23.1859 60.564 22.9671C61.0498 22.7484 61.5843 22.6269 62.1188 22.6269C62.6532 22.6026 63.0905 22.7241 63.4306 22.9185ZM59.5922 20.0021C58.4504 20.2937 57.4301 20.7069 56.5798 21.2659C55.7052 21.8249 55.025 22.4324 54.4906 23.113C53.9804 23.7935 53.616 24.5226 53.4216 25.276C53.2273 26.0294 53.203 26.7585 53.3488 27.439C53.5188 28.1195 53.8589 28.7271 54.4177 29.2132C54.9764 29.6993 55.7052 30.0881 56.6527 30.3312C57.6001 30.5985 58.6205 30.72 59.7137 30.72C60.9041 30.72 62.0702 30.5742 63.2363 30.2826C64.3781 29.9909 65.3741 29.5535 66.2244 28.9702C67.0747 28.3869 67.7306 27.755 68.1922 27.0988C68.6537 26.4183 68.9939 25.7135 69.1882 24.9843C69.3826 24.2309 69.4311 23.5018 69.2854 22.8456C69.1396 22.1894 68.7995 21.6061 68.2408 21.0957C67.682 20.6097 66.9532 20.2208 66.03 19.9535C65.1069 19.6861 64.1108 19.5646 63.0419 19.5646C61.9001 19.5646 60.734 19.7104 59.5922 20.0021ZM47.1053 30.4284C47.8584 30.4284 48.733 30.4284 49.7533 30.4527C49.9477 29.7479 50.3121 28.4112 50.8708 26.4426C51.1866 25.3246 51.5024 24.2795 51.8426 23.2831C52.1584 22.2866 52.5714 21.1443 53.0572 19.8319C51.9154 19.8562 51.0166 19.8562 50.4092 19.8562C49.729 19.8562 48.8302 19.8562 47.7126 19.8319C47.3239 21.193 46.9595 22.4081 46.6437 23.4289C46.3279 24.474 46.0364 25.3975 45.7449 26.2481C45.4533 27.0988 45.2104 27.8036 45.0161 28.3383C44.8217 28.8973 44.5302 29.5778 44.1901 30.4284C45.4048 30.4284 46.3765 30.4284 47.1053 30.4284ZM50.8465 18.4709C51.6239 18.4709 52.4499 18.4709 53.3002 18.4952C53.3731 18.2279 53.4459 18.0092 53.5188 17.8147L53.9318 16.5266C53.9804 16.3808 54.0533 16.2107 54.1262 15.9919C53.3974 16.0162 52.5228 16.0162 51.551 16.0162C50.8465 16.0162 49.972 16.0162 48.9273 15.9919C48.8787 16.235 48.8302 16.4051 48.7816 16.5509C48.6601 17.037 48.4415 17.6932 48.1742 18.5195C49.146 18.4952 50.0448 18.4709 50.8465 18.4709ZM38.0681 24.9357C37.8251 25.519 37.5336 26.0051 37.1692 26.4183C36.8048 26.8314 36.4161 27.1474 35.9545 27.3661C35.493 27.5849 35.0314 27.6821 34.5698 27.6821C34.1082 27.6821 33.7438 27.5849 33.428 27.3904C33.1122 27.196 32.9178 26.953 32.8207 26.6127C32.7235 26.2968 32.7478 25.9322 32.845 25.519C32.9907 24.9843 33.2822 24.4497 33.7438 23.8907C34.2054 23.3317 34.7642 22.9428 35.4201 22.6755C36.076 22.4081 36.8291 22.2866 37.6551 22.2866C38.0681 22.2866 38.4811 22.3352 38.9184 22.4081C38.6025 23.5261 38.311 24.3524 38.0681 24.9357ZM43.4856 23.7935C44.4573 20.8284 45.3562 18.3251 46.1579 16.2593C45.259 16.2836 44.3844 16.2836 43.5099 16.2836C42.8296 16.2836 41.9794 16.2836 40.9104 16.2593C40.4974 17.7418 40.133 18.8841 39.8415 19.7104C38.9184 19.6132 38.0924 19.5646 37.3636 19.5646C36.2704 19.5646 35.25 19.6618 34.254 19.8806C33.258 20.0993 32.3348 20.4638 31.4602 20.9742C30.5857 21.4846 29.784 22.1894 29.1037 23.0887C28.3992 23.9879 27.9376 24.8871 27.6704 25.835C27.5004 26.4912 27.4518 27.1231 27.5247 27.755C27.6218 28.3626 27.8405 28.8973 28.2535 29.3347C28.6422 29.7722 29.1766 30.1368 29.8326 30.3798C30.4885 30.6228 31.2416 30.7443 32.0676 30.7443C32.5534 30.7443 33.0393 30.6957 33.5009 30.6228C33.9868 30.5499 34.424 30.4284 34.8613 30.2583C35.2986 30.1124 35.663 29.9423 35.9545 29.7722C36.2461 29.6021 36.6105 29.4076 36.9992 29.1403L36.5619 30.4527C37.5579 30.4284 38.4082 30.4284 39.0884 30.4284C39.6958 30.4284 40.4732 30.4284 41.3963 30.4527C41.8336 28.9702 42.5138 26.7585 43.4856 23.7935ZM19.8479 21.8492C20.3823 21.8492 20.771 21.9221 21.014 22.0679C21.2569 22.2137 21.3298 22.4081 21.2569 22.6755C21.2326 22.7727 21.184 22.8699 21.1111 22.9428C21.0383 23.04 20.9411 23.113 20.8196 23.1859C20.6982 23.2588 20.5524 23.3317 20.3823 23.4046C20.2123 23.4532 19.9208 23.5261 19.5321 23.6233C19.1434 23.6962 18.7061 23.7692 18.2445 23.8421C17.127 24.0122 16.1795 24.1823 15.4264 24.3768C14.6733 24.5712 14.066 24.7656 13.6044 24.9843C13.1428 25.2031 12.7299 25.4461 12.3412 25.7378C11.9525 26.0294 11.6609 26.3454 11.418 26.6613C11.1994 26.9773 11.0293 27.2932 10.9564 27.6092C10.8107 28.1438 10.8592 28.6785 11.1022 29.2132C11.3451 29.7479 11.7824 30.1368 12.4383 30.3798C13.0943 30.6228 13.9445 30.7443 15.0377 30.7443C15.6937 30.7443 16.4225 30.6957 17.1999 30.5985C17.8315 29.5778 18.3417 28.8 18.7304 28.2897C18.3417 28.3869 18.0259 28.4598 17.8072 28.4841C17.5886 28.5084 17.3942 28.5327 17.1999 28.5327C16.6897 28.5327 16.3253 28.4598 16.1552 28.2897C15.9609 28.1195 15.9123 27.9251 15.9609 27.6821C16.0095 27.5362 16.0824 27.3904 16.2038 27.2689C16.3253 27.1474 16.4954 27.0259 16.714 26.9043C16.9326 26.7828 17.1999 26.6856 17.4671 26.6127C17.7586 26.5398 18.1473 26.4426 18.6332 26.3211C19.1191 26.1995 19.4835 26.1266 19.6778 26.078C19.8722 26.0294 20.1637 25.9322 20.5281 25.8107C19.7507 28.1924 19.192 29.7722 18.8761 30.5256C19.7993 30.5013 20.6739 30.5013 21.4755 30.5013C22.3258 30.5013 23.1518 30.5013 24.0021 30.5256C24.658 28.314 25.2411 26.5398 25.7269 25.1788C26.2128 23.8178 26.5043 22.9428 26.6258 22.554C26.8201 21.8006 26.7473 21.193 26.3829 20.8041C26.0185 20.3909 25.4354 20.0993 24.6337 19.9049C23.832 19.7104 22.9332 19.6375 21.9128 19.6375C20.1151 19.6375 17.9287 19.8562 15.305 20.2937C15.062 20.8527 14.892 21.2659 14.7705 21.5089C14.649 21.7762 14.4304 22.238 14.066 22.9428C16.4468 22.1894 18.366 21.8492 19.8479 21.8492ZM2.76947 30.4284C3.61975 30.4284 4.47002 30.4284 5.29601 30.4527C5.39318 29.918 5.51465 29.4806 5.61182 29.116C5.87905 28.0952 6.17058 27.1717 6.43781 26.3697C6.72933 25.5676 6.99656 24.9843 7.26379 24.6198C7.53102 24.2552 7.84684 23.9393 8.21124 23.6962C8.57564 23.4532 8.94005 23.2588 9.35304 23.1373C9.76603 23.0157 10.2276 22.9671 10.7378 22.9671C11.1508 22.9671 11.5881 23.0157 12.0253 23.1373L12.3654 21.5332C12.4626 21.0471 12.6084 20.4152 12.8027 19.6618C12.4383 19.5889 12.0982 19.5646 11.7824 19.5646C11.4423 19.5646 11.1265 19.5889 10.8107 19.6618C10.4948 19.7104 10.179 19.8076 9.86321 19.9292C9.54739 20.0507 9.28016 20.1965 9.01293 20.3423C8.7457 20.4881 8.40559 20.7069 7.9926 21.0228L8.357 19.8562C7.40955 19.8805 6.58357 19.8806 5.87905 19.8806C5.27171 19.8806 4.44573 19.8805 3.40111 19.8562C3.20676 20.6097 3.06099 21.2416 2.91523 21.7276C2.76947 22.238 2.648 22.7241 2.50224 23.1859L1.65197 25.835L0 30.4527C1.02033 30.4284 1.9192 30.4284 2.76947 30.4284Z" fill="white" style="fill:white;fill:white;fill-opacity:1;"/>
<path d="M339.421 29.4226H343C342.719 30.8087 341.93 31.9141 340.631 32.7387C339.35 33.5458 337.719 33.9494 335.736 33.9494C333.315 33.9494 331.367 33.3353 329.893 32.1071C328.437 30.8789 327.709 29.2471 327.709 27.2118C327.709 25.1064 328.437 23.422 329.893 22.1587C331.367 20.8954 333.236 20.2638 335.499 20.2638C337.605 20.2638 339.368 20.834 340.789 21.9745C342.21 23.0974 342.93 24.773 342.947 27.0013C342.947 27.3698 342.921 27.7382 342.868 28.1067H331.341C331.464 29.019 331.902 29.7472 332.657 30.2911C333.411 30.8175 334.438 31.0806 335.736 31.0806C337.736 31.0806 338.964 30.528 339.421 29.4226ZM335.499 23.1325C334.359 23.1325 333.438 23.3606 332.736 23.8168C332.034 24.273 331.595 24.8695 331.42 25.6064H339.368C339.263 24.852 338.868 24.2554 338.184 23.8168C337.517 23.3606 336.622 23.1325 335.499 23.1325Z" fill="white" fill-opacity="0.75" style="fill:white;fill:white;fill-opacity:0.75;"/>
<path d="M318.569 33.9494C316.113 33.9494 314.148 33.3265 312.674 32.0807C311.217 30.835 310.489 29.2033 310.489 27.1855C310.489 25.1151 311.244 23.4483 312.753 22.185C314.262 20.9042 316.183 20.2638 318.516 20.2638C320.499 20.2638 322.192 20.7112 323.596 21.606C325.017 22.5009 325.842 23.7817 326.07 25.4485H322.411C322.218 24.852 321.771 24.3695 321.069 24.001C320.367 23.615 319.516 23.422 318.516 23.422C317.2 23.422 316.139 23.7641 315.332 24.4484C314.542 25.1327 314.148 26.0451 314.148 27.1855C314.148 28.2909 314.534 29.1682 315.306 29.8174C316.095 30.4666 317.183 30.7911 318.569 30.7911C320.674 30.7911 321.973 30.2121 322.464 29.0541H326.122C325.877 30.5806 325.078 31.7825 323.727 32.6598C322.376 33.5195 320.657 33.9494 318.569 33.9494Z" fill="white" fill-opacity="0.75" style="fill:white;fill:white;fill-opacity:0.75;"/>
<path d="M309.123 31.0017H309.465V33.6862H307.938C306.394 33.6862 305.386 33.0984 304.912 31.9228C303.789 33.2738 301.947 33.9494 299.385 33.9494C297.648 33.9494 296.271 33.6248 295.253 32.9756C294.235 32.3088 293.727 31.3263 293.727 30.0279C293.727 28.7997 294.148 27.8523 294.99 27.1855C295.85 26.5188 297.008 26.1328 298.464 26.0275L304.386 25.5801V25.238C304.386 24.5361 304.105 24.001 303.543 23.6325C302.982 23.2641 302.21 23.0799 301.227 23.0799C299.367 23.0799 298.297 23.7203 298.016 25.0011H294.385C294.56 23.5624 295.253 22.4131 296.464 21.5534C297.674 20.6937 299.262 20.2638 301.227 20.2638C303.227 20.2638 304.859 20.7024 306.123 21.5797C307.386 22.457 308.017 23.7466 308.017 25.4485V29.8437C308.017 30.6157 308.386 31.0017 309.123 31.0017ZM304.386 28.4488V28.0277L299.411 28.3962C298.06 28.519 297.385 29.0015 297.385 29.8437C297.385 30.7561 298.183 31.2122 299.78 31.2122C301.026 31.2122 302.105 30.9929 303.017 30.5543C303.929 30.0981 304.386 29.3963 304.386 28.4488Z" fill="white" fill-opacity="0.75" style="fill:white;fill:white;fill-opacity:0.75;"/>
<path d="M289.298 33.9492C287.719 33.9492 286.57 33.5807 285.85 32.8438C285.149 32.0894 284.798 31.1068 284.798 29.8962V23.3955H281.534V20.5268H282.824C283.631 20.5268 284.201 20.3689 284.534 20.0531C284.885 19.7197 285.061 19.1933 285.061 18.474V16.8159H288.43V20.5268H292.43V23.3955H288.43V29.2645C288.43 29.5101 288.447 29.7207 288.482 29.8962C288.517 30.0716 288.596 30.2646 288.719 30.4752C288.842 30.6682 289.044 30.8173 289.324 30.9226C289.623 31.0278 289.982 31.0805 290.403 31.0805C290.86 31.0805 291.36 31.0191 291.904 30.8963V33.6597C291.097 33.8527 290.228 33.9492 289.298 33.9492Z" fill="white" fill-opacity="0.75" style="fill:white;fill:white;fill-opacity:0.75;"/>
<path d="M265.34 33.6862V20.527H268.656L268.972 22.185H269.209C270.367 20.9042 271.937 20.2638 273.92 20.2638C275.867 20.2638 277.394 20.7902 278.499 21.8429C279.622 22.8781 280.183 24.3256 280.183 26.1854V33.6862H276.525V27.0276C276.525 25.8345 276.192 24.9397 275.525 24.3431C274.876 23.729 273.981 23.422 272.841 23.422C271.683 23.422 270.744 23.7378 270.025 24.3695C269.323 25.0011 268.972 25.931 268.972 27.1592V33.6862H265.34Z" fill="white" fill-opacity="0.75" style="fill:white;fill:white;fill-opacity:0.75;"/>
<path d="M259.283 29.4226H262.862C262.582 30.8087 261.792 31.9141 260.494 32.7387C259.213 33.5458 257.581 33.9494 255.598 33.9494C253.177 33.9494 251.23 33.3353 249.756 32.1071C248.299 30.8789 247.571 29.2471 247.571 27.2118C247.571 25.1064 248.299 23.422 249.756 22.1587C251.23 20.8954 253.098 20.2638 255.362 20.2638C257.467 20.2638 259.23 20.834 260.652 21.9745C262.073 23.0974 262.792 24.773 262.81 27.0013C262.81 27.3698 262.783 27.7382 262.731 28.1067H251.203C251.326 29.019 251.765 29.7472 252.519 30.2911C253.274 30.8175 254.3 31.0806 255.598 31.0806C257.599 31.0806 258.827 30.528 259.283 29.4226ZM255.362 23.1325C254.221 23.1325 253.3 23.3606 252.598 23.8168C251.896 24.273 251.458 24.8695 251.282 25.6064H259.23C259.125 24.852 258.73 24.2554 258.046 23.8168C257.379 23.3606 256.484 23.1325 255.362 23.1325Z" fill="white" fill-opacity="0.75" style="fill:white;fill:white;fill-opacity:0.75;"/>
<path d="M223.317 33.6862V20.527H226.634L226.949 22.1061H227.186C228.221 20.8779 229.581 20.2638 231.266 20.2638C233.125 20.2638 234.45 20.9656 235.24 22.3693H235.45C236.538 20.9656 238.073 20.2638 240.056 20.2638C241.67 20.2638 242.933 20.7112 243.846 21.606C244.776 22.4833 245.241 23.7729 245.241 25.4748V33.6862H241.582V26.1328C241.582 25.2731 241.328 24.6063 240.819 24.1326C240.328 23.6589 239.687 23.422 238.898 23.422C238.056 23.422 237.371 23.6852 236.845 24.2116C236.336 24.7204 236.082 25.4222 236.082 26.317V33.6862H232.424V26.2117C232.424 25.3345 232.178 24.6502 231.687 24.1589C231.195 23.6676 230.555 23.422 229.765 23.422C228.976 23.422 228.309 23.6764 227.765 24.1852C227.221 24.6941 226.949 25.3959 226.949 26.2907V33.6862H223.317Z" fill="white" fill-opacity="0.75" style="fill:white;fill:white;fill-opacity:0.75;"/>
<path d="M220.35 20.5269V33.686H217.008L216.692 32.028H216.482C215.324 33.3088 213.744 33.9492 211.744 33.9492C209.797 33.9492 208.27 33.4316 207.165 32.3964C206.06 31.3437 205.507 29.8874 205.507 28.0276V20.5269H209.139V27.1854C209.139 28.3785 209.463 29.2821 210.113 29.8962C210.779 30.4927 211.683 30.791 212.823 30.791C213.981 30.791 214.911 30.484 215.613 29.8699C216.332 29.2382 216.692 28.2995 216.692 27.0538V20.5269H220.35Z" fill="white" fill-opacity="0.75" style="fill:white;fill:white;fill-opacity:0.75;"/>
<path d="M203.85 20.5269L197.534 25.5274L203.85 33.686H199.613L194.876 27.6328L192.639 29.3962V33.686H189.007V15H192.639V25.2115H192.876L199.008 20.5269H203.85Z" fill="white" fill-opacity="0.75" style="fill:white;fill:white;fill-opacity:0.75;"/>
<path d="M178.446 33.9494C176.06 33.9494 174.103 33.3177 172.577 32.0544C171.05 30.7911 170.287 29.1419 170.287 27.1066C170.287 25.0713 171.042 23.422 172.55 22.1587C174.077 20.8954 176.042 20.2638 178.446 20.2638C180.85 20.2638 182.806 20.8954 184.315 22.1587C185.841 23.422 186.605 25.0713 186.605 27.1066C186.605 29.1419 185.841 30.7911 184.315 32.0544C182.806 33.3177 180.85 33.9494 178.446 33.9494ZM175.13 29.7647C175.937 30.449 177.042 30.7911 178.446 30.7911C179.849 30.7911 180.955 30.449 181.762 29.7647C182.569 29.0629 182.973 28.1769 182.973 27.1066C182.973 26.0363 182.569 25.159 181.762 24.4747C180.955 23.7729 179.849 23.422 178.446 23.422C177.042 23.422 175.937 23.7729 175.13 24.4747C174.323 25.159 173.919 26.0363 173.919 27.1066C173.919 28.1769 174.323 29.0629 175.13 29.7647Z" fill="white" fill-opacity="0.75" style="fill:white;fill:white;fill-opacity:0.75;"/>
<path d="M159.027 15.2632C161.817 15.2632 164.036 16.0791 165.686 17.7108C167.353 19.325 168.186 21.562 168.186 24.422C168.186 27.2819 167.353 29.5453 165.686 31.2121C164.036 32.8614 161.817 33.686 159.027 33.686H150V15.2632H159.027ZM158.896 30.3173C160.668 30.3173 162.019 29.7734 162.949 28.6856C163.879 27.5977 164.344 26.159 164.344 24.3693C164.344 22.5797 163.87 21.176 162.922 20.1584C161.992 19.1408 160.65 18.6319 158.896 18.6319H153.764V30.3173H158.896Z" fill="white" fill-opacity="0.75" style="fill:white;fill:white;fill-opacity:0.75;"/>
</svg>
